<?xml version="1.0" encoding="UTF-8" standalone="no"?>
<!-- Created with Inkscape (http://www.inkscape.org/) -->

<svg
   version="1.1"
   id="svg2"
   xml:space="preserve"
   width="2790.8267"
   height="2062.1733"
   viewBox="0 0 2790.8267 2062.1733"
   sodipodi:docname="logo4.eps"
   xmlns:inkscape="http://www.inkscape.org/namespaces/inkscape"
   xmlns:sodipodi="http://sodipodi.sourceforge.net/DTD/sodipodi-0.dtd"
   xmlns="http://www.w3.org/2000/svg"
   xmlns:svg="http://www.w3.org/2000/svg"><defs
     id="defs6" /><sodipodi:namedview
     id="namedview4"
     pagecolor="#ffffff"
     bordercolor="#666666"
     borderopacity="1.0"
     inkscape:pageshadow="2"
     inkscape:pageopacity="0.0"
     inkscape:pagecheckerboard="0" /><g
     id="g8"
     inkscape:groupmode="layer"
     inkscape:label="ink_ext_XXXXXX"
     transform="matrix(1.3333333,0,0,-1.3333333,0,2062.1733)"><g
       id="g10"
       transform="scale(0.1)"><path
         d="m 11120.1,6661.33 c -245.2,-103.7 -505.7,-156.27 -774.3,-156.27 -268.6,0 -529.1,52.57 -774.24,156.27 -236.86,100.17 -449.61,243.62 -632.35,426.36 -182.73,182.74 -326.18,395.49 -426.37,632.35 -103.69,245.15 -156.26,505.65 -156.26,774.25 0,268.61 52.57,529.11 156.26,774.26 100.19,236.86 243.64,449.61 426.37,632.34 182.74,182.71 395.49,326.21 632.35,426.41 245.15,103.6 505.64,156.2 774.24,156.2 268.6,0 529.1,-52.6 774.3,-156.2 236.8,-100.2 449.6,-243.7 632.3,-426.41 182.8,-182.74 326.2,-395.49 426.4,-632.34 103.7,-245.15 156.2,-505.65 156.2,-774.26 0,-268.6 -52.5,-529.1 -156.2,-774.25 -100.2,-236.86 -243.6,-449.61 -426.4,-632.35 -182.7,-182.74 -395.5,-326.19 -632.3,-426.36 z m 772.3,3379.57 c -413.1,413.1 -962.4,640.6 -1546.6,640.6 -584.21,0 -1133.47,-227.5 -1546.58,-640.6 -413.11,-413.12 -640.62,-962.38 -640.62,-1546.61 0,-584.22 227.51,-1133.48 640.62,-1546.59 413.11,-413.11 962.37,-640.62 1546.58,-640.62 584.2,0 1133.5,227.51 1546.6,640.62 413.1,413.11 640.6,962.37 640.6,1546.59 0,584.23 -227.5,1133.49 -640.6,1546.61"
         style="fill:#ffffff;fill-opacity:1;fill-rule:nonzero;stroke:none"
         id="path28" /><path
         d="m 12001.3,7811.57 c -84.6,-13.63 -146.7,-38.37 -206.8,-62.29 -75.8,-30.2 -141.3,-56.28 -244.2,-56.28 -80.8,0 -138.4,29.8 -205.2,64.3 -85.5,44.19 -182.4,94.27 -344,94.27 -154.1,0 -259.4,-47.58 -352.4,-89.55 -85.7,-38.76 -159.8,-72.23 -265.4,-72.23 -105.7,0 -179.8,33.47 -265.5,72.23 -93,41.97 -198.26,89.55 -352.35,89.55 -161.62,0 -258.54,-50.08 -344.04,-94.27 -66.75,-34.5 -124.4,-64.3 -205.19,-64.3 -102.91,0 -168.39,26.08 -244.21,56.28 -60.06,23.92 -122.16,48.66 -206.84,62.29 v 0 c -45.09,7.26 -76.32,-43.77 -49.34,-80.62 v 0 c 2.34,-3.2 58.68,-79.03 174.65,-139.47 l 1.64,-0.85 1.7,-0.74 3.71,-1.6 c 53.66,-23.2 109.14,-47.19 183.93,-61.14 l 0.2,-0.03 0.19,-0.04 c 33.31,-5.94 67.52,-9.65 101.67,-11.03 l 0.34,-0.02 1.83,-0.08 c 10.19,-0.39 20.49,-0.59 30.53,-0.59 154.03,0 235.4,45.6 307.2,85.84 65.99,36.97 122.98,68.91 236.9,68.91 124.84,0 200.46,-34.54 280.48,-71.1 90.1,-41.12 183.2,-83.65 342.5,-83.65 159.2,0 252.3,42.53 342.4,83.65 80,36.56 155.6,71.1 280.5,71.1 113.9,0 170.9,-31.94 236.9,-68.91 71.8,-40.24 153.2,-85.84 307.2,-85.84 10,0 20.3,0.2 30.6,0.59 l 1.8,0.08 v 0 l 0.3,0.02 c 34.1,1.38 68.4,5.09 101.7,11.03 l 0.1,0.04 0.2,0.03 c 74.8,13.95 130.3,37.94 184,61.14 l 3.7,1.6 1.7,0.74 1.6,0.85 c 116.1,60.48 172.4,136.29 174.7,139.49 v 0 c 26.9,36.85 -4.3,87.85 -49.4,80.6 v 0"
         style="fill:#ffffff;fill-opacity:1;fill-rule:nonzero;stroke:none"
         id="path30" /><path
         d="m 11024.2,7308.57 -1.3,0.1 -1.3,0.03 c -6.5,0.18 -13.3,0.37 -20.5,0.37 -154.1,0 -259.4,-47.58 -352.4,-89.56 -85.7,-38.76 -159.8,-72.23 -265.4,-72.23 -105.7,0 -179.8,33.47 -265.5,72.23 -93,41.98 -198.26,89.56 -352.35,89.56 -7.25,0 -14.02,-0.19 -20.56,-0.37 l -1.31,-0.03 -1.31,-0.1 c -44.1,-3.49 -157,-25.78 -252.61,-157.33 v 0 c -31.9,-43.88 17.55,-100.67 65.4,-75.11 v 0 c 48.74,26.05 104.74,51.47 205.26,51.47 124.84,0 200.46,-34.53 280.48,-71.09 90.1,-41.13 183.2,-83.65 342.5,-83.65 159.2,0 252.3,42.52 342.4,83.65 80,36.56 155.6,71.09 280.5,71.09 100.5,0 156.5,-25.42 205.2,-51.46 v 0 c 47.9,-25.57 97.3,31.21 65.5,75.09 v 0 c -95.7,131.56 -208.6,153.85 -252.7,157.34"
         style="fill:#ffffff;fill-opacity:1;fill-rule:nonzero;stroke:none"
         id="path32" /><path
         d="m 10345.8,10630.4 c -1179.73,0 -2136.11,-956.36 -2136.11,-2136.11 0,-1179.74 956.38,-2136.12 2136.11,-2136.12 1179.8,0 2136.1,956.38 2136.1,2136.12 0,1179.75 -956.3,2136.11 -2136.1,2136.11 z m 0,-95.8 c 275.5,0 542.7,-53.9 794.2,-160.3 242.9,-102.7 461.1,-249.9 648.5,-437.28 187.5,-187.41 334.6,-405.62 437.3,-648.57 106.4,-251.48 160.3,-518.67 160.3,-794.16 0,-275.48 -53.9,-542.67 -160.3,-794.15 -102.7,-242.95 -249.8,-461.16 -437.3,-648.58 -187.4,-187.41 -405.6,-334.53 -648.5,-437.29 -251.5,-106.37 -518.7,-160.3 -794.2,-160.3 -275.5,0 -542.66,53.93 -794.14,160.3 -242.95,102.76 -461.16,249.88 -648.57,437.29 -187.41,187.42 -334.54,405.63 -437.3,648.58 -106.37,251.48 -160.3,518.67 -160.3,794.15 0,275.49 53.93,542.68 160.3,794.16 102.76,242.95 249.89,461.16 437.3,648.57 187.41,187.38 405.62,334.58 648.57,437.28 251.48,106.4 518.64,160.3 794.14,160.3"
         style="fill:#6496d6;fill-opacity:1;fill-rule:nonzero;stroke:none"
         id="path34" /><path
         d="m 8938.85,10651.5 c -4.15,-16.8 -10.74,-36.6 -21.18,-56.2 -21.08,-39.6 -52.17,-67.7 -92.87,-84 26.54,62.5 67.15,128.7 114.05,140.2 z M 12666.4,7995.1 c -4.8,9.76 -114.2,224.55 -405.4,275.31 124.2,357.7 114.3,660.91 -29.6,901.99 -57.4,96.16 -136.3,181.87 -234.6,254.75 -77.7,57.63 -167.6,107.4 -267.2,147.91 -168.9,68.69 -306.7,87.06 -312.5,87.81 v 0 c -58.8,7.6 -81.2,-74.3 -26.7,-97.64 v 0 c 185.5,-79.36 328.1,-209.22 412.4,-375.54 69.7,-137.59 95.9,-293.98 71.7,-429.09 -18,-100.41 -71.2,-209.42 -166.6,-214.21 -2.3,-0.12 -4.7,-0.17 -7,-0.17 -82.6,0 -139.8,77.87 -233.8,215.52 -76,111.37 -170.7,249.98 -317.8,366.5 -172.4,136.54 -381,215.87 -637.8,242.51 -47.6,4.95 -95.6,7.45 -142.7,7.45 -144.4,0.01 -286.7,-23.43 -422.85,-69.64 -108.75,-36.92 -213.78,-88.37 -312.16,-152.92 -23.43,-15.37 -45.35,-30.74 -65.73,-45.81 15.57,29.17 32.03,59.59 49.07,91.07 128.13,236.75 287.59,531.4 360.2,833.8 37.67,156.8 47.87,319.7 29.57,470.9 -20.36,167.4 -75.86,313.5 -160.55,422.4 -56.57,72.8 -126.14,129.7 -206.78,169.1 -86.26,42.1 -185.48,64.2 -294.92,65.7 -3.04,0 -6.15,0.1 -9.19,0.1 v 0 h -0.01 c -0.01,0 -0.05,0 -0.06,0 -254.15,0 -491.07,-147.6 -685.2,-426.9 -146.21,-210.2 -231.22,-445 -244.25,-524 -12.42,-75.3 0.44,-139.9 36.2,-182.1 20.13,-23.7 57.43,-52 120.79,-52 41.5,0 89.32,12.45 142.14,37 64.35,29.9 123.08,39.8 185.25,50.3 104.04,17.6 211.64,35.8 330.96,149.4 8.53,8.1 16.44,16.3 23.78,24.6 l 49.88,-5.3 c 5.45,-1.4 32.44,-9.7 47.54,-46.2 11.79,-28.5 19.94,-83 -8.16,-181.2 -32.14,-112.29 -103.67,-254.33 -212.6,-422.19 -41.82,-64.44 -80.7,-123.66 -118.29,-180.93 -312.98,-476.72 -462.63,-704.63 -434.42,-1124.91 -167.33,-13.95 -281.18,-81.97 -349.27,-139.63 -82.62,-69.97 -118.16,-140.76 -119.63,-143.74 v 0 c -24.67,-49.94 37.02,-97.71 79.19,-61.31 v 0 c 2,1.72 207.73,175.88 452.54,175.88 122.22,0 192.37,-30.34 266.63,-62.46 82.43,-35.65 167.67,-72.52 317.75,-72.52 154.03,0 235.4,45.6 307.2,85.83 65.99,36.98 122.98,68.91 236.9,68.91 124.84,0 200.46,-34.53 280.48,-71.09 90.1,-41.13 183.2,-83.65 342.5,-83.65 159.2,0 252.3,42.52 342.4,83.65 80,36.56 155.6,71.09 280.5,71.09 113.9,0 170.9,-31.93 236.9,-68.91 71.8,-40.23 153.2,-85.83 307.2,-85.83 150.1,0 235.3,36.87 317.7,72.52 74.3,32.12 144.4,62.46 266.7,62.46 244.8,0 450.5,-174.16 452.6,-175.92 v -0.05 c 42.2,-36.23 103.7,11.53 79.1,61.4 v 0"
         style="fill:#ffffff;fill-opacity:1;fill-rule:nonzero;stroke:none"
         id="path36" /><path
         d="m 11550.3,7641.91 c -202.2,0 -272.5,158.57 -549.2,158.57 -276.8,0 -376.4,-161.78 -617.8,-161.78 -241.5,0 -341.1,161.78 -617.85,161.78 -276.74,0 -346.99,-158.57 -549.23,-158.57 -197,0 -274.25,89.45 -459.17,119.22 0.55,-0.75 50.6,-68.87 157.04,-124.34 53.03,-22.92 105.93,-46.21 176.74,-59.41 29.53,-5.27 61.03,-8.92 94.76,-10.28 0.66,-0.03 1.28,-0.07 1.95,-0.1 9.4,-0.35 18.95,-0.54 28.68,-0.54 276.74,0 285.26,154.74 544.1,154.74 275.88,0 330.78,-154.74 622.98,-154.74 292.1,0 347,154.74 622.9,154.74 258.8,0 267.3,-154.74 544.1,-154.74 9.7,0 19.3,0.19 28.7,0.54 0.6,0.03 1.3,0.07 1.9,0.1 33.7,1.36 65.3,5.01 94.8,10.28 70.8,13.2 123.7,36.49 176.7,59.41 106.5,55.47 156.5,123.59 157.1,124.34 -185,-29.77 -262.2,-119.22 -459.2,-119.22"
         style="fill:#6496d6;fill-opacity:1;fill-rule:nonzero;stroke:none"
         id="path38" /><path
         d="m 11020.2,7257.63 c -6.3,0.18 -12.6,0.35 -19.1,0.35 -276.8,0 -376.4,-161.79 -617.8,-161.79 -241.5,0 -341.1,161.79 -617.85,161.79 -6.54,0 -12.85,-0.17 -19.16,-0.35 -39.41,-3.11 -132.88,-23.02 -215.31,-136.43 58.09,31.03 122.31,57.49 229.34,57.49 275.88,0 330.78,-154.74 622.98,-154.74 292.1,0 347,154.74 622.9,154.74 107,0 171.2,-26.46 229.3,-57.49 -82.4,113.41 -175.9,133.32 -215.3,136.43"
         style="fill:#6496d6;fill-opacity:1;fill-rule:nonzero;stroke:none"
         id="path40" /><path
         d="m 8747.89,10443.9 c 0,0 78.24,314.5 249.07,252.3 0,0 -3.19,-239.5 -249.07,-252.3 z M 12191,8227.77 c 468.4,1222.91 -780.5,1384.43 -780.5,1384.43 670.1,-286.77 611.4,-1101.2 300,-1116.83 -311.5,-15.64 -301.6,730.9 -1204.2,824.57 -693.63,71.97 -1094.83,-421.21 -1094.83,-421.21 80.29,230.19 405.07,685.17 516.18,1147.87 111.15,462.7 -13.19,1057.3 -583.7,1065.1 -570.51,7.9 -865.88,-776.3 -887.6,-908 -21.72,-131.7 44.07,-227.57 227.19,-142.5 183.12,85.1 326.75,23.1 502.51,190.4 175.77,167.3 51.29,374.6 51.29,374.6 0,0 151.31,-56.7 66.16,-341.9 0,0 302.16,-48.1 -138.92,-727.8 -409.44,-630.94 -588.25,-839.44 -540.28,-1326.58 -352.95,-3.59 -478.38,-257.45 -478.38,-257.45 0,0 218.12,188.29 485.92,188.29 267.79,0 307.64,-134.98 584.38,-134.98 276.74,0 285.26,154.74 544.1,154.74 275.88,0 330.78,-154.74 622.98,-154.74 292.1,0 347,154.74 622.9,154.74 258.8,0 267.3,-154.74 544.1,-154.74 276.7,0 316.6,134.98 584.4,134.98 267.8,0 485.9,-188.29 485.9,-188.29 0,0 -113.8,230.3 -429.6,255.3"
         style="fill:#6496d6;fill-opacity:1;fill-rule:nonzero;stroke:none"
         id="path42" /></g></g></svg>
